<svg width="20" height="20" viewBox="0 0 20 20" fill="none" xmlns="http://www.w3.org/2000/svg">
<path d="M10.0001 0C6.00613 0 2.75684 3.2493 2.75684 7.2432C2.75684 12.1998 9.23883 19.4763 9.51481 19.7836C9.77402 20.0723 10.2266 20.0718 10.4854 19.7836C10.7613 19.4763 17.2433 12.1998 17.2433 7.2432C17.2432 3.2493 13.994 0 10.0001 0ZM10.0001 18.3488C7.81856 15.7575 4.06121 10.645 4.06121 7.24328C4.06121 3.96852 6.72535 1.30438 10.0001 1.30438C13.2748 1.30438 15.9389 3.96852 15.9389 7.24324C15.9389 10.6451 12.1822 15.7566 10.0001 18.3488Z" fill="#252729"/>
<path d="M9.99969 3.59912C7.99024 3.59912 6.35547 5.23393 6.35547 7.24338C6.35547 9.25283 7.99027 10.8876 9.99969 10.8876C12.0091 10.8876 13.6439 9.25283 13.6439 7.24338C13.6439 5.23393 12.0091 3.59912 9.99969 3.59912ZM9.99969 9.58326C8.70945 9.58326 7.65984 8.53361 7.65984 7.24338C7.65984 5.95314 8.70949 4.9035 9.99969 4.9035C11.2899 4.9035 12.3395 5.95314 12.3395 7.24338C12.3395 8.53361 11.2899 9.58326 9.99969 9.58326Z" fill="#252729"/>
</svg>
