<svg width="64" height="46" viewBox="0 0 64 46" fill="none" xmlns="http://www.w3.org/2000/svg">
<path d="M63.1284 20.8956L44.0831 1.85026C42.9211 0.688259 41.0365 0.688259 39.8745 1.85026C38.7123 3.01251 38.7123 4.89657 39.8745 6.05881L53.8398 20.024H2.97584C1.33246 20.024 0 21.3565 0 22.9999C0 24.643 1.33246 25.9757 2.97584 25.9757H53.8398L39.875 39.941C38.7128 41.1032 38.7128 42.9873 39.875 44.1495C40.4559 44.7302 41.2177 45.0211 41.9793 45.0211C42.7409 45.0211 43.5024 44.7302 44.0836 44.1495L63.1284 25.1042C64.2907 23.9419 64.2907 22.0579 63.1284 20.8956Z" fill="white"/>
</svg>
