<svg width="217" height="69" viewBox="0 0 217 69" fill="none" xmlns="http://www.w3.org/2000/svg">
<path fill-rule="evenodd" clip-rule="evenodd" d="M35.2086 0C54.636 0 70.4172 15.4636 70.4172 34.5C70.4172 53.5364 54.636 69 35.2086 69C15.7814 69 0 53.5364 0 34.5C0 15.4636 15.7814 0 35.2086 0Z" fill="black"/>
<path fill-rule="evenodd" clip-rule="evenodd" d="M61.5251 38.8999C60.4374 40.1024 58.4795 40.9769 57.0655 41.7968L45.9709 48.0825C42.9253 49.7769 33.3536 56.0625 30.4168 56.0625C26.8274 56.0625 23.945 53.1656 23.945 49.5582C23.945 49.5036 23.945 49.4488 23.945 49.3942C23.945 39.4466 23.945 29.4988 23.945 19.6058C23.945 19.5511 23.945 19.4964 23.945 19.4418C23.945 15.8344 26.8274 12.9375 30.4168 12.9375C33.3536 12.9375 42.9798 19.1685 45.9709 20.9175L57.0111 27.0939C58.4795 27.9138 60.383 28.7882 61.4708 29.9907C63.8093 32.505 63.8093 36.4403 61.5251 38.8999ZM8.71714 28.351C9.26099 29.0069 9.69607 29.2255 10.5662 29.7174C11.4364 30.1547 12.4153 30.4826 13.4486 30.6466C14.7538 30.8107 14.9171 30.592 14.8626 31.2478V32.8329C14.8626 33.1608 14.6995 33.1608 14.0469 33.1608C12.3065 33.0516 10.7294 32.6143 9.42414 31.9037C8.01013 31.1385 6.97681 30.264 6.16104 29.1709C5.67156 28.4603 5.61718 28.2417 5.99788 28.0231C6.26981 27.859 6.81366 27.5311 7.13996 27.3671C7.90136 27.0392 8.06451 27.4765 8.71714 28.351ZM16.6029 29.7174C12.796 26.3833 13.3942 21.1361 16.8205 17.966C16.9293 17.8568 16.875 17.8568 16.9836 17.966C20.4099 21.1361 21.0625 26.3833 17.2557 29.7174C16.875 29.9907 16.9836 30.0453 16.6029 29.7174ZM16.6029 51.7992C10.7294 46.716 11.6539 38.572 16.9836 33.7075C17.1469 33.5981 17.0924 33.5435 17.2012 33.7075C22.4766 38.572 23.4555 46.6614 17.6363 51.7445C17.0381 52.2365 17.1469 52.2364 16.6029 51.7992ZM29.1659 44.5297V48.465C29.1659 49.285 29.1659 49.8861 29.9273 50.4328C30.2537 50.6513 30.6344 50.8153 31.015 50.8153C31.8309 50.8153 34.2781 49.1756 35.257 48.5744C42.2184 44.4751 49.2885 40.4304 56.1954 36.2763C58.0988 35.1286 58.0988 33.8168 56.1954 32.6689C49.2885 28.515 42.2184 24.4703 35.257 20.371C34.2781 19.7698 31.8309 18.13 31.015 18.13C30.5799 18.13 30.2537 18.2939 29.9273 18.5126C29.1659 19.0592 29.1659 19.715 29.1659 20.4802V24.4157C29.1659 31.1385 29.1659 37.8068 29.1659 44.5297Z" fill="white"/>
<path fill-rule="evenodd" clip-rule="evenodd" d="M107.741 35.3892C107.046 34.5288 106.085 34.0984 104.91 34.0984C103.629 34.0984 102.614 34.5287 101.92 35.3415C101.226 36.1543 100.905 37.3017 100.905 38.736V47.1984H96.2062V25.9229H98.5556C99.1964 25.9229 99.7839 26.1141 100.211 26.5443C100.692 26.9747 100.905 27.4528 100.905 28.0265V32.9031C101.76 31.6601 102.934 30.895 104.43 30.5604C105.925 30.2257 107.42 30.3213 108.809 30.7994C110.09 31.2776 111.158 32.0903 112.066 33.1421C112.92 34.194 113.401 35.6762 113.401 37.5886V47.1984H108.755V38.6404C108.755 38.0189 108.702 37.4451 108.595 36.9192C108.435 36.4411 108.168 35.9152 107.741 35.3892ZM120.236 41.748H124.935C124.989 42.5608 125.309 43.1824 125.95 43.6126C126.644 44.043 127.552 44.2342 128.727 44.2342C129.581 44.2342 130.275 44.0907 130.863 43.8039C131.397 43.517 131.717 43.1346 131.717 42.6087C131.717 42.0827 131.236 41.6524 130.329 41.3178C128.246 40.5527 125.309 40.505 123.173 39.4053C121.571 38.5926 120.663 37.3496 120.663 35.6762C120.663 34.0984 121.304 32.8075 122.693 31.7557C124.081 30.7994 125.896 30.3213 128.086 30.3213C130.489 30.3213 132.411 30.7994 133.8 31.7557C135.135 32.8075 135.829 34.1462 135.936 35.7718H132.945C132.091 35.7718 131.397 35.4371 130.916 34.7199C130.756 34.5287 130.542 34.3853 130.382 34.2418C129.848 33.8593 129.047 33.6681 128.086 33.6681C127.178 33.6681 126.484 33.8116 126.003 34.0506C125.095 34.5765 125.202 35.5327 126.164 36.0108C128.887 37.3496 132.411 36.8236 135.188 38.9272C136.042 39.6922 136.523 40.6485 136.523 41.8915C136.523 43.7083 135.775 45.0948 134.334 46.0988C132.945 47.0073 130.863 47.4375 128.139 47.4375C125.523 47.4375 123.547 46.9594 122.265 46.0032C120.93 45.0469 120.236 43.6605 120.236 41.8436V41.748ZM114.415 30.7038H116.925C117.566 30.7038 118.1 30.895 118.581 31.3254C119.061 31.7557 119.275 32.2338 119.275 32.8075V47.1506H114.415V30.7038ZM114.415 25.875H116.925C117.566 25.875 118.1 26.0662 118.581 26.4966C119.061 26.9268 119.275 27.4049 119.275 27.9786V29.2695H114.415V25.875ZM95.2983 47.1984C93.8031 47.294 92.1477 47.2463 90.3321 47.1506C88.5699 47.0073 87.6621 46.0032 87.6621 44.1386V26.0185H90.1718C90.7593 26.0185 91.2933 26.2097 91.7739 26.6399C92.2545 27.0703 92.4682 27.5484 92.4682 28.1221V30.1779H95.2983V31.6122C95.2983 32.2338 95.0847 32.7119 94.6041 33.1421C94.1235 33.5247 93.5895 33.7158 92.9487 33.7158H92.4682V42.9433C92.4682 43.6605 92.9487 43.9951 93.8565 43.9951H95.2983V47.1984Z" fill="black"/>
<path d="M201.432 54.4739V50.8991H202.797C203.727 50.8991 204.491 50.6978 205.037 50.2948C205.583 49.892 205.693 49.1872 205.365 48.2809L198.811 31.0108H203.945L208.15 42.7927L211.374 32.5716C211.647 31.5142 212.411 31.0108 213.612 31.0108H217L209.79 50.7481C209.244 52.2081 208.532 53.2152 207.659 53.8194C206.84 54.3733 205.42 54.625 203.508 54.625C203.345 54.625 203.181 54.625 203.017 54.625C202.852 54.625 202.688 54.625 202.524 54.625C202.36 54.5747 202.196 54.5242 201.978 54.5242C201.759 54.5242 201.541 54.4739 201.432 54.4739ZM142.767 28.0905V33.3269C143.258 32.5213 144.023 31.8163 145.006 31.3128C145.88 30.8597 146.864 30.6583 148.12 30.6583C150.359 30.6583 152.163 31.5142 153.583 33.2261C155.002 34.938 155.712 37.1032 155.712 39.8221C155.712 52.6109 137.96 51.1005 137.96 40.8793V25.875H140.363C141.019 25.875 141.62 26.0764 142.057 26.5295C142.494 26.9827 142.767 27.4862 142.767 28.0905ZM150.796 39.5702C150.796 38.0094 150.414 36.801 149.758 35.9451C149.049 35.0388 148.066 34.5855 146.864 34.5855C145.552 34.5855 144.515 35.0388 143.805 35.8947C143.095 36.801 142.767 38.0598 142.767 39.6207C142.767 41.4332 143.095 42.7927 143.75 43.5982C144.46 44.5046 145.443 44.9578 146.7 44.9578C148.011 44.9578 149.049 44.5046 149.758 43.5982C150.468 42.6416 150.796 41.2821 150.796 39.5702ZM171.663 43.0445H174.011C173.519 44.857 172.482 46.2668 171.062 47.2235C169.587 48.2306 167.784 48.734 165.545 48.734C162.868 48.734 160.738 47.9284 159.263 46.3173C157.733 44.7564 157.023 42.4906 157.023 39.6207C157.023 36.8513 157.734 34.6863 159.209 33.1255C160.738 31.5142 162.813 30.7086 165.49 30.7086C168.33 30.7086 170.516 31.5142 172.045 33.0752C173.192 34.3338 173.901 35.9451 174.175 37.9087C174.229 38.1101 174.393 40.6276 174.229 40.9298H161.994C162.048 42.2892 162.376 43.2962 163.031 43.9507C164.398 45.5115 167.347 45.2095 168.821 43.8501C169.26 43.3968 169.806 43.0445 171.663 43.0445ZM161.994 37.9591H169.205C169.096 36.801 168.767 35.8947 168.221 35.3408C167.62 34.7366 166.746 34.4346 165.599 34.4346C164.562 34.4346 163.743 34.7366 163.031 35.3408C162.376 35.9451 162.048 36.801 161.994 37.9591ZM175.814 48.3815V39.9731C175.814 34.0821 179.473 31.0611 185.7 31.0611C185.809 31.0611 185.918 31.0611 186.029 31.0611C186.193 31.0611 186.302 31.0611 186.411 31.0611V35.6933H184.772C181.987 35.6933 180.731 36.9521 180.731 39.4696V48.3815H175.814ZM186.903 48.3815V39.9731C186.903 34.0821 190.562 31.0611 196.789 31.0611C196.898 31.0611 197.007 31.0611 197.116 31.0611C197.281 31.0611 197.391 31.0611 197.5 31.0611V35.6933H195.86C193.075 35.6933 191.819 36.9521 191.819 39.4696V48.3815H186.903Z" fill="black"/>
</svg>
