<svg width="32" height="32" viewBox="0 0 32 32" fill="none" xmlns="http://www.w3.org/2000/svg">
<g clip-path="url(#clip0_305:3994)">
<path d="M1.99961 2.17723C-0.515052 4.78923 -0.000385359 7.5639 -0.000385359 15.9932C-0.000385359 22.9932 -1.22172 30.0106 5.17028 31.6626C7.16628 32.1759 24.8516 32.1759 26.8449 31.6599C29.5063 30.9732 31.6716 28.8146 31.9676 25.0506C32.0089 24.5252 32.0089 7.47057 31.9663 6.93457C31.6516 2.92523 29.1836 0.614566 25.9316 0.146566C25.1863 0.0385658 25.0369 0.00656577 21.2129 -0.000100896C7.64895 0.00656577 4.67561 -0.597434 1.99961 2.17723Z" fill="#BCBCC7"/>
<path d="M15.9968 4.18523C11.1554 4.18523 6.55809 3.75456 4.80209 8.26123C4.07676 10.1226 4.18209 12.5399 4.18209 16.0012C4.18209 19.0386 4.08476 21.8932 4.80209 23.7399C6.55409 28.2492 11.1888 27.8172 15.9941 27.8172C20.6301 27.8172 25.4101 28.2999 27.1874 23.7399C27.9141 21.8599 27.8074 19.4786 27.8074 16.0012C27.8074 11.3852 28.0621 8.40523 25.8234 6.1679C23.5568 3.90123 20.4914 4.18523 15.9914 4.18523H15.9968ZM14.9381 6.31456C25.0368 6.29856 26.3221 5.1759 25.6128 20.7719C25.3608 26.2879 21.1608 25.6826 15.9981 25.6826C6.58476 25.6826 6.31409 25.4132 6.31409 15.9959C6.31409 6.46923 7.06076 6.3199 14.9381 6.3119V6.31456ZM22.3034 8.2759C21.5208 8.2759 20.8861 8.91056 20.8861 9.69323C20.8861 10.4759 21.5208 11.1106 22.3034 11.1106C23.0861 11.1106 23.7208 10.4759 23.7208 9.69323C23.7208 8.91056 23.0861 8.2759 22.3034 8.2759ZM15.9968 9.93323C12.6461 9.93323 9.93009 12.6506 9.93009 16.0012C9.93009 19.3519 12.6461 22.0679 15.9968 22.0679C19.3474 22.0679 22.0621 19.3519 22.0621 16.0012C22.0621 12.6506 19.3474 9.93323 15.9968 9.93323ZM15.9968 12.0626C21.2034 12.0626 21.2101 19.9399 15.9968 19.9399C10.7914 19.9399 10.7834 12.0626 15.9968 12.0626Z" fill="white"/>
</g>
<defs>
<clipPath id="clip0_305:3994">
<rect width="32" height="32" fill="white"/>
</clipPath>
</defs>
</svg>
