<svg width="16" height="16" viewBox="0 0 16 16" fill="none" xmlns="http://www.w3.org/2000/svg">
<g clip-path="url(#clip0_334:1179)">
<path d="M12.6334 9.71301C12.3058 9.37194 11.9107 9.18959 11.492 9.18959C11.0767 9.18959 10.6782 9.36856 10.3371 9.70963L9.27 10.7734C9.1822 10.7261 9.09441 10.6822 9.00998 10.6383C8.88841 10.5775 8.7736 10.5201 8.67567 10.4593C7.6761 9.82444 6.76771 8.9971 5.89647 7.92662C5.47436 7.39307 5.1907 6.94394 4.98471 6.48806C5.26161 6.23479 5.51826 5.97139 5.76815 5.71812C5.8627 5.62357 5.95726 5.52564 6.05181 5.43109C6.76096 4.72193 6.76096 3.80342 6.05181 3.09426L5.12991 2.17237C5.02523 2.06768 4.91717 1.95962 4.81586 1.85156C4.61325 1.64219 4.4005 1.42607 4.181 1.22346C3.85344 0.899273 3.46172 0.727051 3.04974 0.727051C2.63775 0.727051 2.23928 0.899273 1.90159 1.22346C1.89821 1.22683 1.89821 1.22683 1.89483 1.23021L0.746685 2.38849C0.31444 2.82073 0.067926 3.34753 0.0138955 3.95875C-0.0671503 4.94481 0.223264 5.86333 0.44614 6.46442C0.993199 7.94013 1.81041 9.30778 3.02948 10.7734C4.50856 12.5395 6.28819 13.9341 8.32109 14.9168C9.09778 15.2849 10.1345 15.7205 11.2928 15.7948C11.3637 15.7982 11.438 15.8016 11.5055 15.8016C12.2856 15.8016 12.9407 15.5213 13.454 14.9641C13.4574 14.9573 13.4641 14.954 13.4675 14.9472C13.6431 14.7345 13.8457 14.542 14.0585 14.336C14.2037 14.1975 14.3523 14.0523 14.4975 13.9004C14.8318 13.5526 15.0074 13.1473 15.0074 12.732C15.0074 12.3132 14.8284 11.9114 14.4873 11.5737L12.6334 9.71301ZM13.8423 13.2689C13.839 13.2689 13.839 13.2723 13.8423 13.2689C13.7106 13.4107 13.5756 13.539 13.4304 13.6809C13.2109 13.8902 12.988 14.1097 12.7786 14.3563C12.4375 14.721 12.0357 14.8932 11.5089 14.8932C11.4582 14.8932 11.4042 14.8932 11.3536 14.8898C10.3506 14.8256 9.41859 14.4339 8.71957 14.0996C6.80824 13.1743 5.12991 11.8607 3.73525 10.1959C2.58372 8.80799 1.81379 7.52477 1.30387 6.14699C0.989822 5.30614 0.875007 4.65102 0.925661 4.03305C0.95943 3.63795 1.11139 3.31039 1.39167 3.0301L2.5432 1.87858C2.70867 1.72324 2.88427 1.63882 3.05649 1.63882C3.26924 1.63882 3.44146 1.76714 3.54952 1.8752C3.5529 1.87858 3.55627 1.88195 3.55965 1.88533C3.76564 2.07781 3.9615 2.27705 4.16749 2.4898C4.27218 2.59786 4.38024 2.70592 4.4883 2.81736L5.4102 3.73925C5.76815 4.09721 5.76815 4.42814 5.4102 4.7861C5.31227 4.88403 5.21771 4.98196 5.11978 5.07651C4.83612 5.36692 4.56597 5.63708 4.27218 5.90048C4.26542 5.90723 4.25867 5.91061 4.25529 5.91736C3.96488 6.20777 4.01891 6.49144 4.07969 6.68392C4.08307 6.69405 4.08645 6.70418 4.08983 6.71431C4.32959 7.29514 4.66728 7.8422 5.18057 8.49394L5.18394 8.49732C6.11597 9.64547 7.09865 10.5403 8.18264 11.2259C8.32109 11.3137 8.46292 11.3846 8.598 11.4521C8.71957 11.5129 8.83438 11.5703 8.93231 11.6311C8.94582 11.6378 8.95933 11.648 8.97284 11.6547C9.08765 11.7121 9.19571 11.7392 9.30715 11.7392C9.58743 11.7392 9.76303 11.5636 9.82044 11.5061L10.9753 10.3512C11.0902 10.2364 11.2725 10.098 11.4853 10.098C11.6946 10.098 11.8668 10.2297 11.9715 10.3445C11.9749 10.3479 11.9749 10.3479 11.9783 10.3512L13.839 12.2119C14.1868 12.5564 14.1868 12.9109 13.8423 13.2689Z" fill="#BCBCC7"/>
</g>
<defs>
<clipPath id="clip0_334:1179">
<rect width="16" height="16" fill="white"/>
</clipPath>
</defs>
</svg>
