<svg width="20" height="20" viewBox="0 0 20 20" fill="none" xmlns="http://www.w3.org/2000/svg">
<g clip-path="url(#clip0_305:3977)">
<path d="M15.7918 12.1411C15.3823 11.7148 14.8884 11.4869 14.365 11.4869C13.8458 11.4869 13.3477 11.7106 12.9214 12.1369L11.5875 13.4666C11.4778 13.4075 11.368 13.3526 11.2625 13.2977C11.1105 13.2217 10.967 13.15 10.8446 13.074C9.59513 12.2804 8.45964 11.2463 7.37059 9.90816C6.84295 9.24122 6.48837 8.6798 6.23088 8.10995C6.57702 7.79337 6.89782 7.46412 7.21019 7.14753C7.32838 7.02934 7.44657 6.90693 7.56476 6.78873C8.4512 5.9023 8.4512 4.75415 7.56476 3.86771L6.41239 2.71534C6.28154 2.58448 6.14646 2.44941 6.01983 2.31433C5.76656 2.05262 5.50063 1.78247 5.22625 1.5292C4.8168 1.12397 4.32715 0.908691 3.81217 0.908691C3.29719 0.908691 2.7991 1.12397 2.37698 1.5292C2.37276 1.53342 2.37276 1.53342 2.36854 1.53764L0.933356 2.98549C0.39305 3.5258 0.0849075 4.18429 0.0173694 4.94832C-0.0839379 6.18089 0.27908 7.32904 0.557675 8.0804C1.2415 9.92504 2.26301 11.6346 3.78684 13.4666C5.6357 15.6742 7.86024 17.4176 10.4014 18.6459C11.3722 19.106 12.6681 19.6505 14.116 19.7434C14.2046 19.7476 14.2975 19.7518 14.3819 19.7518C15.357 19.7518 16.1759 19.4015 16.8175 18.705C16.8217 18.6966 16.8302 18.6923 16.8344 18.6839C17.0539 18.418 17.3071 18.1774 17.5731 17.9199C17.7546 17.7468 17.9403 17.5653 18.1218 17.3753C18.5397 16.9406 18.7592 16.434 18.7592 15.9148C18.7592 15.3914 18.5355 14.8891 18.1092 14.467L15.7918 12.1411ZM17.3029 16.586C17.2987 16.586 17.2987 16.5902 17.3029 16.586C17.1383 16.7633 16.9695 16.9237 16.7879 17.101C16.5136 17.3627 16.235 17.6371 15.9733 17.9452C15.5469 18.4011 15.0446 18.6164 14.3861 18.6164C14.3228 18.6164 14.2553 18.6164 14.1919 18.6121C12.9383 18.5319 11.7732 18.0423 10.8995 17.6244C8.5103 16.4678 6.41239 14.8258 4.66906 12.7448C3.22965 11.0099 2.26724 9.40584 1.62984 7.68362C1.23728 6.63255 1.09376 5.81365 1.15708 5.04118C1.19929 4.54731 1.38924 4.13786 1.73959 3.78751L3.179 2.3481C3.38584 2.15393 3.60534 2.0484 3.82061 2.0484C4.08654 2.0484 4.30182 2.2088 4.4369 2.34388C4.44112 2.3481 4.44534 2.35232 4.44956 2.35654C4.70705 2.59715 4.95188 2.84619 5.20937 3.11213C5.34022 3.2472 5.4753 3.38228 5.61037 3.52158L6.76275 4.67395C7.21019 5.12139 7.21019 5.53506 6.76275 5.9825C6.64033 6.10491 6.52214 6.22732 6.39973 6.34552C6.04515 6.70853 5.70746 7.04622 5.34022 7.37547C5.33178 7.38392 5.32334 7.38814 5.31912 7.39658C4.9561 7.7596 5.02364 8.11417 5.09962 8.35478C5.10384 8.36744 5.10806 8.3801 5.11228 8.39277C5.41198 9.1188 5.8341 9.80263 6.47571 10.6173L6.47993 10.6215C7.64496 12.0567 8.87331 13.1753 10.2283 14.0322C10.4014 14.142 10.5787 14.2306 10.7475 14.315C10.8995 14.391 11.043 14.4628 11.1654 14.5387C11.1823 14.5472 11.1992 14.5598 11.216 14.5683C11.3596 14.64 11.4946 14.6738 11.6339 14.6738C11.9843 14.6738 12.2038 14.4543 12.2755 14.3826L13.7192 12.9389C13.8627 12.7954 14.0906 12.6223 14.3566 12.6223C14.6183 12.6223 14.8336 12.787 14.9644 12.9305C14.9686 12.9347 14.9686 12.9347 14.9729 12.9389L17.2987 15.2648C17.7335 15.6953 17.7335 16.1386 17.3029 16.586Z" fill="#252729"/>
</g>
<defs>
<clipPath id="clip0_305:3977">
<rect width="20" height="20" fill="white"/>
</clipPath>
</defs>
</svg>
